<?xml version="1.0" encoding="UTF-8" standalone="no"?>
<!-- Created with Inkscape (http://www.inkscape.org/) -->

<svg
   width="250mm"
   height="250mm"
   viewBox="0 0 250 250"
   version="1.1"
   id="svg5"
   xml:space="preserve"
   xmlns="http://www.w3.org/2000/svg"
   xmlns:svg="http://www.w3.org/2000/svg"><defs
     id="defs2" /><g
     id="layer1"><circle
       style="fill:#000000;stroke-width:0.31274"
       id="path357"
       cx="125.26261"
       cy="127.00965"
       r="120.94244" /><path
       style="fill:#ffffff;stroke-width:0.246687"
       d="m 140.51719,226.42088 c 1.75969,-2.41042 2.15735,-5.87897 1.13129,-9.8675 -0.27857,-1.08287 -0.36003,-1.17203 -1.07389,-1.1754 -1.07068,-0.005 -3.71275,-0.63963 -5.33616,-1.28164 -2.80191,-1.10808 -6.21091,-3.59207 -8.34579,-6.0812 -3.51586,-4.09933 -6.38306,-9.99507 -7.60235,-15.63263 -0.66605,-3.07958 -0.6019,-8.03627 0.14132,-10.9204 1.01366,-3.93357 3.29768,-7.77911 5.92859,-9.98185 1.28352,-1.07464 4.69088,-2.96923 5.34003,-2.96923 0.65183,0 1.78474,-0.7191 1.94919,-1.23725 0.0947,-0.29829 -0.15357,-1.40691 -0.61066,-2.72713 -2.78285,-8.03778 -9.20728,-25.4476 -14.63321,-39.65522 -0.90884,-2.37979 -1.53278,-3.66146 -1.91163,-3.92681 -1.25763,-0.88087 -7.79365,-6.05076 -12.0638,-9.54223 C 89.133603,99.732814 72.561544,83.645343 60.818814,70.057063 55.560386,63.972192 44.216531,49.273091 44.534018,48.955605 c 0.05642,-0.05642 3.031775,2.417992 6.611908,5.498682 11.044812,9.504019 16.186463,13.932551 21.19412,18.254627 6.970524,6.016203 17.645787,14.93438 27.992124,23.38475 2.30653,1.88386 4.56142,3.76792 5.01088,4.186796 0.81293,0.75759 2.50964,3.69026 5.47158,9.45731 0.85363,1.66206 1.64727,3.02192 1.76365,3.02192 0.30828,0 0.27373,-0.14244 -0.38241,-1.57694 -0.65936,-1.44149 -3.10619,-7.23262 -7.30719,-17.294636 -3.61144,-8.649882 -9.467467,-22.165948 -12.476947,-28.797522 -1.30921,-2.884932 -3.0763,-6.799462 -3.92685,-8.698954 -0.85057,-1.899492 -2.01603,-4.452706 -2.58993,-5.673809 -1.13223,-2.409073 -9.700133,-21.200762 -10.263338,-22.510218 -0.189658,-0.440952 -0.292033,-0.801733 -0.227502,-0.801733 0.199553,0 5.603689,6.854494 8.123764,10.304014 5.711196,7.817575 13.420326,20.008359 18.521803,29.289301 0.37289,0.678391 1.04807,1.899493 1.50042,2.713561 7.78766,14.015388 15.35113,31.140886 22.93384,51.927676 0.91562,2.51005 1.71746,4.70185 1.78186,4.87066 0.0644,0.16882 0.20976,0.24967 0.32303,0.17967 0.11323,-0.07 0.0316,-0.70768 -0.18161,-1.41704 -0.82067,-2.73111 -2.25085,-8.20118 -2.16636,-8.28572 0.0487,-0.0487 1.73239,1.1808 3.74139,2.73241 10.83824,8.37075 35.99666,26.96427 37.00171,27.34639 1.102,0.41898 1.68171,0.25182 2.67895,-0.77249 4.33745,-4.45516 11.37966,-5.42631 17.59047,-2.4258 2.96968,1.43467 5.4773,3.93589 6.89863,6.88103 0.55656,1.15326 1.14949,2.7074 1.31762,3.45361 0.46428,2.06072 0.38762,6.23515 -0.14949,8.14069 -0.81512,2.89191 -0.809,2.94213 0.52049,4.26898 0.65326,0.65196 1.90815,1.54003 2.78863,1.9735 1.49298,0.73499 1.77588,0.78812 4.19631,0.78812 2.3961,0 2.71853,-0.0589 4.19886,-0.76729 0.88191,-0.422 2.13077,-1.23627 2.77523,-1.80945 0.64448,-0.57319 1.17178,-0.92589 1.17178,-0.78377 0,0.14213 -0.22952,0.87186 -0.51006,1.62164 -0.65932,1.76219 -2.24042,3.34309 -4.37517,4.37462 -1.47491,0.71267 -1.93261,0.8087 -4.26999,0.89586 -3.11536,0.11619 -5.62304,-0.41997 -8.68471,-1.85672 -1.78577,-0.83801 -1.98807,-0.88243 -2.51857,-0.55299 -3.75872,2.33414 -5.31155,2.91973 -8.27207,3.11955 -6.49752,0.43855 -12.40817,-2.87414 -15.71061,-8.80517 -1.32873,-2.38633 -1.8484,-4.6581 -1.82498,-7.97791 0.0232,-3.28543 -0.14854,-3.82363 -2.01949,-6.32996 -1.54189,-2.0655 -2.09539,-2.63584 -4.23541,-4.3643 -3.53223,-2.85293 -6.78371,-4.59149 -14.95462,-7.99624 -5.25726,-2.19066 -6.0906,-2.63247 -10.52785,-5.58166 -1.94001,-1.28941 -3.57538,-2.29631 -3.63415,-2.23755 -0.0587,0.0588 0.16788,1.21992 0.50367,2.58036 1.02359,4.14721 2.03958,9.38927 2.57435,13.28237 1.03744,7.55271 2.07546,11.6104 3.97566,15.54129 1.46115,3.02263 3.20519,5.35942 5.37202,7.19778 1.69993,1.44224 1.70244,1.43857 -0.57719,0.84261 -0.54272,-0.14187 -1.7306,-0.26062 -2.63975,-0.26384 -5.48513,-0.0195 -10.22601,2.98866 -12.53761,7.9554 -2.66389,5.72369 -2.12843,12.09186 1.63548,19.45026 4.78618,9.3569 11.802,13.3696 18.84566,10.77879 1.97535,-0.72658 3.15681,-1.51487 5.0132,-3.34499 5.27743,-5.2027 5.54947,-15.9487 0.55882,-22.07524 -2.15372,-2.64392 -5.78951,-4.56836 -9.10243,-4.81797 -2.2291,-0.16796 -1.79501,-0.53048 0.85949,-0.71782 6.55011,-0.46225 12.45785,3.51615 15.4492,10.40383 1.4419,3.32004 1.96566,9.00314 1.17396,12.73832 -0.42938,2.02571 -1.6748,5.08686 -2.78072,6.83471 -2.22125,3.51061 -6.63253,6.88921 -10.18478,7.80054 -0.97043,0.24896 -1.11904,0.37605 -1.1813,1.01016 -0.41616,4.23895 -1.79903,7.57504 -4.08941,9.86542 -1.56916,1.56914 -2.61903,2.17841 -1.78489,1.0358 z m 41.92137,-57.68628 c 3.0658,-1.00643 5.75407,-3.80211 6.80809,-7.08013 0.82481,-2.56517 0.66227,-5.66019 -0.42069,-8.01035 -3.22574,-7.00032 -12.80853,-9.12887 -17.89625,-3.97512 -0.65849,0.66702 -1.58901,2.01406 -2.08669,3.02068 -0.7944,1.60687 -0.90972,2.0802 -0.9979,4.09637 -0.16434,3.75778 0.93203,6.60789 3.51834,9.14615 3.09201,3.03455 7.20082,4.07423 11.0751,2.8024 z m -60.51661,-49.81895 c 0.40944,-0.98846 0.12707,-1.88149 -0.73603,-2.32782 -1.03029,-0.53279 -1.43014,-0.47112 -2.24784,0.34657 -0.84838,0.84837 -0.90579,1.44444 -0.2228,2.31272 0.88796,1.12887 2.67845,0.94378 3.20667,-0.33147 z"
       id="path242" /></g></svg>
